<svg xmlns="http://www.w3.org/2000/svg" width="1100" height="560" viewBox="0 0 1100 560" role="img" aria-labelledby="title desc">
  <title id="title">GitHub activity dashboard</title>
  <desc id="desc">Custom activity dashboard with contribution summary and chart for Edwin Andres Sanchez Orozco.</desc>
  <defs>
    <linearGradient id="bg" x1="0" x2="1" y1="0" y2="1"><stop offset="0%" stop-color="#07111f"/><stop offset="100%" stop-color="#0b1729"/></linearGradient>
    <linearGradient id="line" x1="0" x2="1"><stop offset="0%" stop-color="#67e8f9"/><stop offset="55%" stop-color="#8b5cf6"/><stop offset="100%" stop-color="#22c55e"/></linearGradient>
    <filter id="glow"><feGaussianBlur stdDeviation="4" result="blur"/><feMerge><feMergeNode in="blur"/><feMergeNode in="SourceGraphic"/></feMerge></filter>
    <pattern id="grid" width="30" height="30" patternUnits="userSpaceOnUse"><path d="M30 0H0V30" fill="none" stroke="#1f3654" stroke-width="1" stroke-dasharray="2 3" opacity=".7"/></pattern>
  </defs>
  <rect x="8" y="8" width="1084" height="544" rx="24" fill="#07111f" stroke="#24364f"/>
  <text x="48" y="46" fill="#67e8f9" font-family="Consolas, monospace" font-size="20" font-weight="700">ACTIVITY DASHBOARD</text>
  <text x="823" y="46" fill="#9fb7d4" font-family="Consolas, monospace" font-size="14">AndresSanchez12323 · 2026</text>

  <g transform="translate(212 72)">
    <rect width="676" height="154" rx="16" fill="#101524" stroke="#24364f"/>
    <line x1="225" y1="24" x2="225" y2="130" stroke="#cbd5e1" stroke-width="2" opacity=".75"/>
    <line x1="451" y1="24" x2="451" y2="130" stroke="#cbd5e1" stroke-width="2" opacity=".75"/>
    <text x="112" y="64" text-anchor="middle" fill="#6ea8ff" font-family="Segoe UI, Arial" font-size="34" font-weight="800">151</text>
    <text x="112" y="98" text-anchor="middle" fill="#6ea8ff" font-family="Consolas, monospace" font-size="15">Contributions</text>
    <text x="112" y="125" text-anchor="middle" fill="#22e6c3" font-family="Consolas, monospace" font-size="13">Jan 1 - Jul 4</text>
    <circle cx="338" cy="67" r="43" fill="none" stroke="#67e8f9" stroke-width="7" filter="url(#glow)"/>
    <path d="M338 18c8 10 5 20 0 26-5-6-8-16 0-26z" fill="#67e8f9" filter="url(#glow)"/>
    <text x="338" y="78" text-anchor="middle" fill="#c084fc" font-family="Segoe UI, Arial" font-size="31" font-weight="800">2</text>
    <text x="338" y="122" text-anchor="middle" fill="#c084fc" font-family="Consolas, monospace" font-size="15" font-weight="700">Current streak</text>
    <text x="564" y="64" text-anchor="middle" fill="#6ea8ff" font-family="Segoe UI, Arial" font-size="34" font-weight="800">3</text>
    <text x="564" y="98" text-anchor="middle" fill="#6ea8ff" font-family="Consolas, monospace" font-size="15">Longest streak</text>
    <text x="564" y="125" text-anchor="middle" fill="#22e6c3" font-family="Consolas, monospace" font-size="13">May 14 - May 16</text>
  </g>

  <g transform="translate(48 266)">
    <rect width="1004" height="222" rx="16" fill="#101524" stroke="#24364f"/>
    <text x="502" y="34" text-anchor="middle" fill="#6ea8ff" font-family="Segoe UI, Arial" font-size="18" font-weight="800">Edwin's Contribution Graph</text>
    <rect x="28" y="58" width="948" height="140" fill="url(#grid)"/>
    <line x1="28" y1="198" x2="976" y2="198" stroke="#6ea8ff" stroke-width="2" opacity=".75"/>
    <line x1="28" y1="58" x2="28" y2="198" stroke="#6ea8ff" stroke-width="2" opacity=".75"/>
    <text x="9" y="132" text-anchor="middle" transform="rotate(-90 9 132)" fill="#6ea8ff" font-family="Consolas, monospace" font-size="12">Contributions</text>
    <text x="502" y="214" text-anchor="middle" fill="#6ea8ff" font-family="Consolas, monospace" font-size="12">Last 31 days</text>
    <polyline points="82.0,242.0 112.0,242.0 142.0,242.0 172.0,242.0 202.0,226.2 232.0,242.0 262.0,242.0 292.0,242.0 322.0,242.0 352.0,242.0 382.0,242.0 412.0,242.0 442.0,242.0 472.0,242.0 502.0,242.0 532.0,242.0 562.0,242.0 592.0,242.0 622.0,242.0 652.0,242.0 682.0,242.0 712.0,242.0 742.0,242.0 772.0,242.0 802.0,242.0 832.0,194.8 862.0,234.1 892.0,242.0 922.0,186.9 952.0,116.0 982.0,242.0" fill="none" stroke="url(#line)" stroke-width="4" stroke-linecap="round" stroke-linejoin="round" filter="url(#glow)"/>
    <circle cx="82.0" cy="242.0" r="4" fill="#4b5f7a" opacity=".75"><title>2026-06-05: 0 contributions</title></circle><circle cx="112.0" cy="242.0" r="4" fill="#4b5f7a" opacity=".75"><title>2026-06-06: 0 contributions</title></circle><circle cx="142.0" cy="242.0" r="4" fill="#4b5f7a" opacity=".75"><title>2026-06-07: 0 contributions</title></circle><circle cx="172.0" cy="242.0" r="4" fill="#4b5f7a" opacity=".75"><title>2026-06-08: 0 contributions</title></circle><circle cx="202.0" cy="226.2" r="5" fill="#67e8f9" opacity="1"><title>2026-06-09: 2 contributions</title></circle><circle cx="232.0" cy="242.0" r="4" fill="#4b5f7a" opacity=".75"><title>2026-06-10: 0 contributions</title></circle><circle cx="262.0" cy="242.0" r="4" fill="#4b5f7a" opacity=".75"><title>2026-06-11: 0 contributions</title></circle><circle cx="292.0" cy="242.0" r="4" fill="#4b5f7a" opacity=".75"><title>2026-06-12: 0 contributions</title></circle><circle cx="322.0" cy="242.0" r="4" fill="#4b5f7a" opacity=".75"><title>2026-06-13: 0 contributions</title></circle><circle cx="352.0" cy="242.0" r="4" fill="#4b5f7a" opacity=".75"><title>2026-06-14: 0 contributions</title></circle><circle cx="382.0" cy="242.0" r="4" fill="#4b5f7a" opacity=".75"><title>2026-06-15: 0 contributions</title></circle><circle cx="412.0" cy="242.0" r="4" fill="#4b5f7a" opacity=".75"><title>2026-06-16: 0 contributions</title></circle><circle cx="442.0" cy="242.0" r="4" fill="#4b5f7a" opacity=".75"><title>2026-06-17: 0 contributions</title></circle><circle cx="472.0" cy="242.0" r="4" fill="#4b5f7a" opacity=".75"><title>2026-06-18: 0 contributions</title></circle><circle cx="502.0" cy="242.0" r="4" fill="#4b5f7a" opacity=".75"><title>2026-06-19: 0 contributions</title></circle><circle cx="532.0" cy="242.0" r="4" fill="#4b5f7a" opacity=".75"><title>2026-06-20: 0 contributions</title></circle><circle cx="562.0" cy="242.0" r="4" fill="#4b5f7a" opacity=".75"><title>2026-06-21: 0 contributions</title></circle><circle cx="592.0" cy="242.0" r="4" fill="#4b5f7a" opacity=".75"><title>2026-06-22: 0 contributions</title></circle><circle cx="622.0" cy="242.0" r="4" fill="#4b5f7a" opacity=".75"><title>2026-06-23: 0 contributions</title></circle><circle cx="652.0" cy="242.0" r="4" fill="#4b5f7a" opacity=".75"><title>2026-06-24: 0 contributions</title></circle><circle cx="682.0" cy="242.0" r="4" fill="#4b5f7a" opacity=".75"><title>2026-06-25: 0 contributions</title></circle><circle cx="712.0" cy="242.0" r="4" fill="#4b5f7a" opacity=".75"><title>2026-06-26: 0 contributions</title></circle><circle cx="742.0" cy="242.0" r="4" fill="#4b5f7a" opacity=".75"><title>2026-06-27: 0 contributions</title></circle><circle cx="772.0" cy="242.0" r="4" fill="#4b5f7a" opacity=".75"><title>2026-06-28: 0 contributions</title></circle><circle cx="802.0" cy="242.0" r="4" fill="#4b5f7a" opacity=".75"><title>2026-06-29: 0 contributions</title></circle><circle cx="832.0" cy="194.8" r="5" fill="#67e8f9" opacity="1"><title>2026-06-30: 6 contributions</title></circle><circle cx="862.0" cy="234.1" r="5" fill="#67e8f9" opacity="1"><title>2026-07-01: 1 contributions</title></circle><circle cx="892.0" cy="242.0" r="4" fill="#4b5f7a" opacity=".75"><title>2026-07-02: 0 contributions</title></circle><circle cx="922.0" cy="186.9" r="5" fill="#67e8f9" opacity="1"><title>2026-07-03: 7 contributions</title></circle><circle cx="952.0" cy="116.0" r="5" fill="#67e8f9" opacity="1"><title>2026-07-04: 16 contributions</title></circle><circle cx="982.0" cy="242.0" r="4" fill="#4b5f7a" opacity=".75"><title>2026-07-05: 0 contributions</title></circle>
    <text x="82.0" y="266" text-anchor="middle" fill="#6ea8ff" font-family="Consolas, monospace" font-size="12">5</text><text x="232.0" y="266" text-anchor="middle" fill="#6ea8ff" font-family="Consolas, monospace" font-size="12">10</text><text x="382.0" y="266" text-anchor="middle" fill="#6ea8ff" font-family="Consolas, monospace" font-size="12">15</text><text x="532.0" y="266" text-anchor="middle" fill="#6ea8ff" font-family="Consolas, monospace" font-size="12">20</text><text x="682.0" y="266" text-anchor="middle" fill="#6ea8ff" font-family="Consolas, monospace" font-size="12">25</text><text x="832.0" y="266" text-anchor="middle" fill="#6ea8ff" font-family="Consolas, monospace" font-size="12">30</text><text x="982.0" y="266" text-anchor="middle" fill="#6ea8ff" font-family="Consolas, monospace" font-size="12">5</text>
  </g>

  <g font-family="Consolas, monospace">
    <text x="404" y="522" fill="#e5eefb" font-size="16" font-weight="700">repos publicos: 15</text>
    <text x="604" y="522" fill="#67e8f9" font-size="16" font-weight="700">build status: active</text>
  </g>
</svg>
