<svg xmlns="http://www.w3.org/2000/svg" width="1100" height="620" viewBox="0 0 1100 620" role="img" aria-labelledby="title desc">
  <title id="title">GitHub activity dashboard</title>
  <desc id="desc">Custom activity dashboard with contribution summary and chart for AndresSanchez12323.</desc>
  <defs>
    <linearGradient id="panelBg" x1="0" x2="1" y1="0" y2="1">
      <stop offset="0%" stop-color="#07111f"/>
      <stop offset="100%" stop-color="#0b1729"/>
    </linearGradient>
    <linearGradient id="line" x1="0" x2="1">
      <stop offset="0%" stop-color="#67e8f9"/>
      <stop offset="55%" stop-color="#8b5cf6"/>
      <stop offset="100%" stop-color="#22c55e"/>
    </linearGradient>
    <filter id="softGlow" x="-30%" y="-30%" width="160%" height="160%">
      <feGaussianBlur stdDeviation="3.5" result="blur"/>
      <feMerge>
        <feMergeNode in="blur"/>
        <feMergeNode in="SourceGraphic"/>
      </feMerge>
    </filter>
    <pattern id="grid" width="30" height="24" patternUnits="userSpaceOnUse">
      <path d="M30 0H0V24" fill="none" stroke="#1f3654" stroke-width="1" stroke-dasharray="2 4" opacity=".58"/>
    </pattern>
    <clipPath id="chartClip">
      <rect x="96" y="368" width="908" height="132" rx="4"/>
    </clipPath>
  </defs>

  <rect x="8" y="8" width="1084" height="604" rx="24" fill="url(#panelBg)" stroke="#24364f"/>
  <text x="48" y="52" fill="#67e8f9" font-family="Consolas, monospace" font-size="20" font-weight="700">ACTIVITY DASHBOARD</text>
  <text x="820" y="52" fill="#9fb7d4" font-family="Consolas, monospace" font-size="14">AndresSanchez12323 · 2026</text>

  <g transform="translate(212 86)">
    <rect width="676" height="154" rx="16" fill="#101524" stroke="#24364f"/>
    <line x1="225" y1="24" x2="225" y2="130" stroke="#cbd5e1" stroke-width="2" opacity=".72"/>
    <line x1="451" y1="24" x2="451" y2="130" stroke="#cbd5e1" stroke-width="2" opacity=".72"/>
    <text x="112" y="64" text-anchor="middle" fill="#6ea8ff" font-family="Segoe UI, Arial" font-size="34" font-weight="800">163</text>
    <text x="112" y="98" text-anchor="middle" fill="#6ea8ff" font-family="Consolas, monospace" font-size="15">Contributions</text>
    <text x="112" y="125" text-anchor="middle" fill="#22e6c3" font-family="Consolas, monospace" font-size="13">Jan 1 - Jul 19</text>
    <circle cx="338" cy="67" r="43" fill="none" stroke="#67e8f9" stroke-width="7" filter="url(#softGlow)"/>
    <path d="M338 18c8 10 5 20 0 26-5-6-8-16 0-26z" fill="#67e8f9" filter="url(#softGlow)"/>
    <text x="338" y="78" text-anchor="middle" fill="#c084fc" font-family="Segoe UI, Arial" font-size="31" font-weight="800">1</text>
    <text x="338" y="122" text-anchor="middle" fill="#c084fc" font-family="Consolas, monospace" font-size="15" font-weight="700">Current streak</text>
    <text x="564" y="64" text-anchor="middle" fill="#6ea8ff" font-family="Segoe UI, Arial" font-size="34" font-weight="800">3</text>
    <text x="564" y="98" text-anchor="middle" fill="#6ea8ff" font-family="Consolas, monospace" font-size="15">Longest streak</text>
    <text x="564" y="125" text-anchor="middle" fill="#22e6c3" font-family="Consolas, monospace" font-size="13">May 14 - May 16</text>
  </g>

  <g>
    <rect x="48" y="294" width="1004" height="272" rx="16" fill="#101524" stroke="#24364f"/>
    <text x="550" y="332" text-anchor="middle" fill="#6ea8ff" font-family="Segoe UI, Arial" font-size="18" font-weight="800">Edwin's Contribution Graph</text>
    <rect x="96" y="368" width="908" height="132" fill="url(#grid)"/>
    <line x1="96" y1="500" x2="1004" y2="500" stroke="#6ea8ff" stroke-width="2" opacity=".8"/>
    <line x1="96" y1="368" x2="96" y2="500" stroke="#6ea8ff" stroke-width="2" opacity=".8"/>
    <text x="78" y="438" text-anchor="middle" transform="rotate(-90 78 438)" fill="#6ea8ff" font-family="Consolas, monospace" font-size="12">Contributions</text>
    <text x="550" y="524" text-anchor="middle" fill="#6ea8ff" font-family="Consolas, monospace" font-size="12">Last 31 days</text>
    <g clip-path="url(#chartClip)">
      <polyline points="96,500 126.3,500 156.5,500 186.8,500 217.1,500 247.3,500 277.6,500 307.9,500 338.1,500 368.4,500 398.7,500 428.9,470.5 459.2,495.1 489.5,500 519.7,470.5 550,382 580.3,500 610.5,500 640.8,500 671.1,475.4 701.3,500 731.6,500 761.9,500 792.1,500 822.4,500 852.7,500 882.9,500 913.2,500 943.5,500 973.7,500 1004,500" fill="none" stroke="url(#line)" stroke-width="4" stroke-linecap="round" stroke-linejoin="round" filter="url(#softGlow)"/>
    </g>
    <circle cx="96" cy="500" r="4" fill="#4b5f7a" opacity=".72"><title>2026-06-19: 0 contributions</title></circle>
      <circle cx="126.3" cy="500" r="4" fill="#4b5f7a" opacity=".72"><title>2026-06-20: 0 contributions</title></circle>
      <circle cx="156.5" cy="500" r="4" fill="#4b5f7a" opacity=".72"><title>2026-06-21: 0 contributions</title></circle>
      <circle cx="186.8" cy="500" r="4" fill="#4b5f7a" opacity=".72"><title>2026-06-22: 0 contributions</title></circle>
      <circle cx="217.1" cy="500" r="4" fill="#4b5f7a" opacity=".72"><title>2026-06-23: 0 contributions</title></circle>
      <circle cx="247.3" cy="500" r="4" fill="#4b5f7a" opacity=".72"><title>2026-06-24: 0 contributions</title></circle>
      <circle cx="277.6" cy="500" r="4" fill="#4b5f7a" opacity=".72"><title>2026-06-25: 0 contributions</title></circle>
      <circle cx="307.9" cy="500" r="4" fill="#4b5f7a" opacity=".72"><title>2026-06-26: 0 contributions</title></circle>
      <circle cx="338.1" cy="500" r="4" fill="#4b5f7a" opacity=".72"><title>2026-06-27: 0 contributions</title></circle>
      <circle cx="368.4" cy="500" r="4" fill="#4b5f7a" opacity=".72"><title>2026-06-28: 0 contributions</title></circle>
      <circle cx="398.7" cy="500" r="4" fill="#4b5f7a" opacity=".72"><title>2026-06-29: 0 contributions</title></circle>
      <circle cx="428.9" cy="470.5" r="5" fill="#67e8f9" opacity="1"><title>2026-06-30: 6 contributions</title></circle>
      <circle cx="459.2" cy="495.1" r="5" fill="#67e8f9" opacity="1"><title>2026-07-01: 1 contributions</title></circle>
      <circle cx="489.5" cy="500" r="4" fill="#4b5f7a" opacity=".72"><title>2026-07-02: 0 contributions</title></circle>
      <circle cx="519.7" cy="470.5" r="5" fill="#67e8f9" opacity="1"><title>2026-07-03: 6 contributions</title></circle>
      <circle cx="550" cy="382" r="5" fill="#67e8f9" opacity="1"><title>2026-07-04: 24 contributions</title></circle>
      <circle cx="580.3" cy="500" r="4" fill="#4b5f7a" opacity=".72"><title>2026-07-05: 0 contributions</title></circle>
      <circle cx="610.5" cy="500" r="4" fill="#4b5f7a" opacity=".72"><title>2026-07-06: 0 contributions</title></circle>
      <circle cx="640.8" cy="500" r="4" fill="#4b5f7a" opacity=".72"><title>2026-07-07: 0 contributions</title></circle>
      <circle cx="671.1" cy="475.4" r="5" fill="#67e8f9" opacity="1"><title>2026-07-08: 5 contributions</title></circle>
      <circle cx="701.3" cy="500" r="4" fill="#4b5f7a" opacity=".72"><title>2026-07-09: 0 contributions</title></circle>
      <circle cx="731.6" cy="500" r="4" fill="#4b5f7a" opacity=".72"><title>2026-07-10: 0 contributions</title></circle>
      <circle cx="761.9" cy="500" r="4" fill="#4b5f7a" opacity=".72"><title>2026-07-11: 0 contributions</title></circle>
      <circle cx="792.1" cy="500" r="4" fill="#4b5f7a" opacity=".72"><title>2026-07-12: 0 contributions</title></circle>
      <circle cx="822.4" cy="500" r="4" fill="#4b5f7a" opacity=".72"><title>2026-07-13: 0 contributions</title></circle>
      <circle cx="852.7" cy="500" r="4" fill="#4b5f7a" opacity=".72"><title>2026-07-14: 0 contributions</title></circle>
      <circle cx="882.9" cy="500" r="4" fill="#4b5f7a" opacity=".72"><title>2026-07-15: 0 contributions</title></circle>
      <circle cx="913.2" cy="500" r="4" fill="#4b5f7a" opacity=".72"><title>2026-07-16: 0 contributions</title></circle>
      <circle cx="943.5" cy="500" r="4" fill="#4b5f7a" opacity=".72"><title>2026-07-17: 0 contributions</title></circle>
      <circle cx="973.7" cy="500" r="4" fill="#4b5f7a" opacity=".72"><title>2026-07-18: 0 contributions</title></circle>
      <circle cx="1004" cy="500" r="4" fill="#4b5f7a" opacity=".72"><title>2026-07-19: 0 contributions</title></circle>
    <text x="96" y="532" text-anchor="middle" fill="#6ea8ff" font-family="Consolas, monospace" font-size="12">19</text>
      <text x="247.3" y="532" text-anchor="middle" fill="#6ea8ff" font-family="Consolas, monospace" font-size="12">24</text>
      <text x="398.7" y="532" text-anchor="middle" fill="#6ea8ff" font-family="Consolas, monospace" font-size="12">29</text>
      <text x="550" y="532" text-anchor="middle" fill="#6ea8ff" font-family="Consolas, monospace" font-size="12">4</text>
      <text x="701.3" y="532" text-anchor="middle" fill="#6ea8ff" font-family="Consolas, monospace" font-size="12">9</text>
      <text x="852.7" y="532" text-anchor="middle" fill="#6ea8ff" font-family="Consolas, monospace" font-size="12">14</text>
      <text x="1004" y="532" text-anchor="middle" fill="#6ea8ff" font-family="Consolas, monospace" font-size="12">19</text>
  </g>

  <g font-family="Consolas, monospace" font-size="16" font-weight="700">
    <text x="338" y="594" fill="#e5eefb">repos publicos: 15</text>
    <text x="526" y="594" fill="#67e8f9">current streak: 1</text>
    <text x="734" y="594" fill="#22e6c3">updated: Jul 19</text>
  </g>
</svg>
